<?xml version="1.0" encoding="UTF-8" standalone="no"?>
<!-- Created with Inkscape (http://www.inkscape.org/) -->

<svg
   xmlns:dc="http://purl.org/dc/elements/1.1/"
   xmlns:cc="http://creativecommons.org/ns#"
   xmlns:rdf="http://www.w3.org/1999/02/22-rdf-syntax-ns#"
   xmlns:svg="http://www.w3.org/2000/svg"
   xmlns="http://www.w3.org/2000/svg"
   xmlns:sodipodi="http://sodipodi.sourceforge.net/DTD/sodipodi-0.dtd"
   xmlns:inkscape="http://www.inkscape.org/namespaces/inkscape"
   width="256"
   height="256"
   viewBox="0 0 256 256"
   id="svg2"
   version="1.1"
   inkscape:version="0.91 r13725"
   sodipodi:docname="mrpdi.svg">
  <defs
     id="defs4" />
  <sodipodi:namedview
     id="base"
     pagecolor="#ffffff"
     bordercolor="#666666"
     borderopacity="1.0"
     inkscape:pageopacity="0.0"
     inkscape:pageshadow="2"
     inkscape:zoom="0.24748737"
     inkscape:cx="277.47425"
     inkscape:cy="-300.94136"
     inkscape:document-units="px"
     inkscape:current-layer="svg2"
     showgrid="false"
     units="px"
     showguides="true"
     inkscape:guide-bbox="true"
     inkscape:snap-intersection-paths="false"
     inkscape:snap-midpoints="true"
     inkscape:window-width="868"
     inkscape:window-height="1003"
     inkscape:window-x="0"
     inkscape:window-y="24"
     inkscape:window-maximized="0">
    <sodipodi:guide
       position="128.92857,237.85714"
       orientation="0,1"
       id="guide4147" />
    <sodipodi:guide
       position="18.214286,162.14286"
       orientation="1,0"
       id="guide4149" />
    <sodipodi:guide
       position="237.85714,66.785714"
       orientation="1,0"
       id="guide4151" />
    <sodipodi:guide
       position="198.21429,17.5"
       orientation="0,1"
       id="guide4153" />
  </sodipodi:namedview>
  <metadata
     id="metadata7">
    <rdf:RDF>
      <cc:Work
         rdf:about="">
        <dc:format>image/svg+xml</dc:format>
        <dc:type
           rdf:resource="http://purl.org/dc/dcmitype/StillImage" />
        <dc:title />
      </cc:Work>
    </rdf:RDF>
  </metadata>
  <g
     inkscape:label="Capa 1"
     inkscape:groupmode="layer"
     id="layer1"
     transform="translate(0,-796.36216)">
    <g
       id="g30303"
       transform="matrix(0.74931131,0,0,0.74931131,16.304901,814.7959)">
      <g
         id="Capa_1-37">
        <g
           id="XMLID_2692_">
          <linearGradient
             gradientTransform="matrix(0.9954,0,0,-0.9999,614.0466,-33.3932)"
             y2="-33.230999"
             x2="-466.34811"
             y1="-329.2612"
             x1="-466.34811"
             gradientUnits="userSpaceOnUse"
             id="rect3438-6-0-6-7-2_60_-70">
            <stop
               id="stop30158"
               style="stop-color:#000000"
               offset="0" />
            <stop
               id="stop30160"
               style="stop-color:#000000;stop-opacity:0.5882"
               offset="1" />
          </linearGradient>
          <path
             style="opacity:0.45;fill:url(#rect3438-6-0-6-7-2_60_-70)"
             d="m 71.442,-0.164 156.804,0 c 37.43,0 67.773,30.583 67.773,68.309 l 0,159.384 c 0,37.726 -30.343,68.308 -67.773,68.308 l -156.804,0 c -37.43,0 -67.773,-30.582 -67.773,-68.308 l 0,-159.384 c 0,-37.726 30.343,-68.309 67.773,-68.309 z"
             enable-background="new    "
             id="rect3438-6-0-6-7-2_34_"
             inkscape:connector-curvature="0" />
          <linearGradient
             gradientTransform="matrix(0.9867,0,0,-0.9918,614.23,-34.4476)"
             y2="-34.565899"
             x2="-470.646"
             y1="-331.2485"
             x1="-470.646"
             gradientUnits="userSpaceOnUse"
             id="rect3438-6-0-1-1_60_-79">
            <stop
               id="stop30164"
               style="stop-color:#000000"
               offset="0" />
            <stop
               id="stop30166"
               style="stop-color:#000000;stop-opacity:0.5882"
               offset="1" />
          </linearGradient>
          <path
             style="opacity:0.45;fill:url(#rect3438-6-0-1-1_60_-79)"
             d="m 72.167,-0.164 155.354,0 c 37.126,0 67.224,30.402 67.224,67.904 l 0,158.442 c 0,37.502 -30.098,67.903 -67.224,67.903 l -155.354,0 c -37.127,0 -67.224,-30.401 -67.224,-67.903 l 0,-158.442 c 0,-37.502 30.098,-67.904 67.224,-67.904 z"
             enable-background="new    "
             id="rect3438-6-0-1-1_34_"
             inkscape:connector-curvature="0" />
          <g
             id="rect3438-6_34_">
            <linearGradient
               gradientTransform="matrix(0.9996,0,0,-0.9996,-615.5344,-774.8599)"
               y2="-1067.6157"
               x2="765.68457"
               y1="-775.29639"
               x1="765.68457"
               gradientUnits="userSpaceOnUse"
               id="XMLID_140_-5">
              <stop
                 id="stop30171"
                 style="stop-color:#FFC163"
                 offset="0.0866" />
              <stop
                 id="stop30173"
                 style="stop-color:#FAB962"
                 offset="0.1474" />
              <stop
                 id="stop30175"
                 style="stop-color:#F6B261"
                 offset="0.241" />
              <stop
                 id="stop30177"
                 style="stop-color:#F4AC5E"
                 offset="0.2719" />
              <stop
                 id="stop30179"
                 style="stop-color:#EC8C4A"
                 offset="0.4716" />
              <stop
                 id="stop30181"
                 style="stop-color:#E5743C"
                 offset="0.6632" />
              <stop
                 id="stop30183"
                 style="stop-color:#E16634"
                 offset="0.8418" />
              <stop
                 id="stop30185"
                 style="stop-color:#E06131"
                 offset="0.9944" />
            </linearGradient>
            <path
               style="fill:url(#XMLID_140_-5)"
               d="m 71.174,0.126 157.34,0 c 37.24,0 67.43,30.19 67.43,67.431 l 0,157.34 c 0,37.241 -30.19,67.432 -67.43,67.432 l -157.34,0 c -37.241,0 -67.431,-30.19 -67.431,-67.432 l 0,-157.34 c 0,-37.241 30.19,-67.431 67.431,-67.431 z"
               id="XMLID_2684_"
               inkscape:connector-curvature="0" />
          </g>
        </g>
        <g
           enable-background="new    "
           id="XMLID_2646_"
           style="opacity:0.2">
          <g
             id="XMLID_2680_">
            <linearGradient
               y2="56"
               x2="150"
               y1="192"
               x1="150"
               gradientUnits="userSpaceOnUse"
               id="XMLID_144_-45">
              <stop
                 id="stop30191"
                 style="stop-color:#000000"
                 offset="0" />
              <stop
                 id="stop30193"
                 style="stop-color:#000000;stop-opacity:0.5882"
                 offset="1" />
            </linearGradient>
            <path
               style="fill:url(#XMLID_144_-45)"
               d="M 234.536,56 65.599,56 C 57.867,56 51,63.449 51,72.163 l 0,103.07 C 51,183.945 57.867,192 65.599,192 l 168.937,0 C 242.268,192 249,183.945 249,175.233 l 0,-103.07 C 249,63.449 242.268,56 234.536,56 Z M 230,169.159 c 0,3.354 -2.188,6.841 -5.372,6.841 L 73.667,176 C 70.482,176 68,172.514 68,169.159 L 68,77.712 C 68,74.357 70.482,72 73.667,72 l 150.961,0 c 3.184,0 5.372,2.357 5.372,5.712 l 0,91.447 z"
               id="XMLID_2685_"
               inkscape:connector-curvature="0" />
            <g
               id="XMLID_2681_">
              <linearGradient
                 y2="201"
                 x2="151"
                 y1="228"
                 x1="151"
                 gradientUnits="userSpaceOnUse"
                 id="XMLID_157_-414">
                <stop
                   id="stop30198"
                   style="stop-color:#000000"
                   offset="0" />
                <stop
                   id="stop30200"
                   style="stop-color:#000000;stop-opacity:0.5882"
                   offset="1" />
              </linearGradient>
              <polygon
                 style="fill:url(#XMLID_157_-414)"
                 points="91,228 225,228 225,201 91,201 91,201.039 77,209.455 77,218.773 91,227.189 "
                 id="XMLID_2683_" />
              <linearGradient
                 y2="209.8047"
                 x2="71.878403"
                 y1="218.2451"
                 x1="71.878403"
                 gradientUnits="userSpaceOnUse"
                 id="XMLID_231_-39">
                <stop
                   id="stop30204"
                   style="stop-color:#000000"
                   offset="0" />
                <stop
                   id="stop30206"
                   style="stop-color:#000000;stop-opacity:0.5882"
                   offset="1" />
              </linearGradient>
              <polygon
                 style="fill:url(#XMLID_231_-39)"
                 points="76,218.245 67.757,214.024 76,209.805 "
                 id="XMLID_2682_" />
            </g>
          </g>
          <g
             id="XMLID_2647_">
            <linearGradient
               y2="74"
               x2="190.7231"
               y1="173"
               x1="190.7231"
               gradientUnits="userSpaceOnUse"
               id="XMLID_248_-81">
              <stop
                 id="stop30211"
                 style="stop-color:#000000"
                 offset="0" />
              <stop
                 id="stop30213"
                 style="stop-color:#000000;stop-opacity:0.5882"
                 offset="1" />
            </linearGradient>
            <path
               style="fill:url(#XMLID_248_-81)"
               d="m 156.126,173 17.799,0 51.395,-97.068 C 224.365,75.193 223.166,74 221.865,74 l -13.416,0 -52.323,99 z"
               id="XMLID_2679_"
               inkscape:connector-curvature="0" />
            <linearGradient
               y2="74"
               x2="145.6523"
               y1="173"
               x1="145.6523"
               gradientUnits="userSpaceOnUse"
               id="XMLID_279_-67">
              <stop
                 id="stop30217"
                 style="stop-color:#000000"
                 offset="0" />
              <stop
                 id="stop30219"
                 style="stop-color:#000000;stop-opacity:0.5882"
                 offset="1" />
            </linearGradient>
            <polygon
               style="fill:url(#XMLID_279_-67)"
               points="126.515,173 180.104,74 164.265,74 111.201,173 "
               id="XMLID_2678_" />
            <linearGradient
               y2="74"
               x2="96.0532"
               y1="165.6875"
               x1="96.0532"
               gradientUnits="userSpaceOnUse"
               id="XMLID_280_-11">
              <stop
                 id="stop30223"
                 style="stop-color:#000000"
                 offset="0" />
              <stop
                 id="stop30225"
                 style="stop-color:#000000;stop-opacity:0.5882"
                 offset="1" />
            </linearGradient>
            <path
               style="fill:url(#XMLID_280_-11)"
               d="M 121.107,74 76.098,74 C 73.022,74 71,76.896 71,80.068 L 71,165.687 121.107,74 Z"
               id="XMLID_2676_"
               inkscape:connector-curvature="0" />
            <linearGradient
               y2="84.159203"
               x2="204.66161"
               y1="173"
               x1="204.66161"
               gradientUnits="userSpaceOnUse"
               id="XMLID_281_-86">
              <stop
                 id="stop30229"
                 style="stop-color:#000000"
                 offset="0" />
              <stop
                 id="stop30231"
                 style="stop-color:#000000;stop-opacity:0.5882"
                 offset="1" />
            </linearGradient>
            <path
               style="fill:url(#XMLID_281_-86)"
               d="m 181.323,173 40.542,0 c 3.076,0 6.135,-3.317 6.135,-6.488 L 228,84.159 181.323,173 Z"
               id="XMLID_2648_"
               inkscape:connector-curvature="0" />
          </g>
        </g>
        <g
           enable-background="new    "
           id="XMLID_2688_"
           style="opacity:0.2">
          <g
             id="XMLID_2746_">
            <linearGradient
               y2="59"
               x2="150"
               y1="194"
               x1="150"
               gradientUnits="userSpaceOnUse"
               id="XMLID_470_-13">
              <stop
                 id="stop30237"
                 style="stop-color:#000000"
                 offset="0" />
              <stop
                 id="stop30239"
                 style="stop-color:#000000;stop-opacity:0.5882"
                 offset="1" />
            </linearGradient>
            <path
               style="fill:url(#XMLID_470_-13)"
               d="M 234.536,59 65.599,59 C 57.867,59 51,66.006 51,74.719 l 0,103.07 C 51,186.501 57.867,194 65.599,194 l 168.937,0 C 242.268,194 249,186.501 249,177.789 l 0,-103.07 C 249,66.006 242.268,59 234.536,59 Z M 230,171.715 c 0,3.355 -2.188,5.285 -5.372,5.285 L 73.667,177 C 70.482,177 68,175.07 68,171.715 L 68,80.268 C 68,76.913 70.482,74 73.667,74 l 150.961,0 c 3.184,0 5.372,2.913 5.372,6.268 l 0,91.447 z"
               id="XMLID_2750_"
               inkscape:connector-curvature="0" />
            <g
               id="XMLID_2747_">
              <linearGradient
                 y2="203"
                 x2="151"
                 y1="230"
                 x1="151"
                 gradientUnits="userSpaceOnUse"
                 id="XMLID_471_-31">
                <stop
                   id="stop30244"
                   style="stop-color:#000000"
                   offset="0" />
                <stop
                   id="stop30246"
                   style="stop-color:#000000;stop-opacity:0.5882"
                   offset="1" />
              </linearGradient>
              <polygon
                 style="fill:url(#XMLID_471_-31)"
                 points="91,230 225,230 225,203 91,203 91,203.595 77,212.012 77,221.329 91,229.745 "
                 id="XMLID_2749_" />
              <linearGradient
                 y2="212.3613"
                 x2="71.878403"
                 y1="220.8008"
                 x1="71.878403"
                 gradientUnits="userSpaceOnUse"
                 id="XMLID_487_-79">
                <stop
                   id="stop30250"
                   style="stop-color:#000000"
                   offset="0" />
                <stop
                   id="stop30252"
                   style="stop-color:#000000;stop-opacity:0.5882"
                   offset="1" />
              </linearGradient>
              <polygon
                 style="fill:url(#XMLID_487_-79)"
                 points="76,220.801 67.757,216.58 76,212.361 "
                 id="XMLID_2748_" />
            </g>
          </g>
          <g
             id="XMLID_2689_">
            <linearGradient
               y2="77"
               x2="190.7231"
               y1="176"
               x1="190.7231"
               gradientUnits="userSpaceOnUse"
               id="XMLID_488_-198">
              <stop
                 id="stop30257"
                 style="stop-color:#000000"
                 offset="0" />
              <stop
                 id="stop30259"
                 style="stop-color:#000000;stop-opacity:0.5882"
                 offset="1" />
            </linearGradient>
            <path
               style="fill:url(#XMLID_488_-198)"
               d="m 156.126,176 17.799,0 51.395,-97.068 C 224.365,78.193 223.166,77 221.865,77 l -13.416,0 -52.323,99 z"
               id="XMLID_2717_"
               inkscape:connector-curvature="0" />
            <linearGradient
               y2="77"
               x2="145.6523"
               y1="176"
               x1="145.6523"
               gradientUnits="userSpaceOnUse"
               id="XMLID_553_-6">
              <stop
                 id="stop30263"
                 style="stop-color:#000000"
                 offset="0" />
              <stop
                 id="stop30265"
                 style="stop-color:#000000;stop-opacity:0.5882"
                 offset="1" />
            </linearGradient>
            <polygon
               style="fill:url(#XMLID_553_-6)"
               points="126.515,176 180.104,77 164.265,77 111.201,176 "
               id="XMLID_2710_" />
            <linearGradient
               y2="77"
               x2="96.0532"
               y1="168.24319"
               x1="96.0532"
               gradientUnits="userSpaceOnUse"
               id="XMLID_564_-8">
              <stop
                 id="stop30269"
                 style="stop-color:#000000"
                 offset="0" />
              <stop
                 id="stop30271"
                 style="stop-color:#000000;stop-opacity:0.5882"
                 offset="1" />
            </linearGradient>
            <path
               style="fill:url(#XMLID_564_-8)"
               d="M 121.107,77 76.098,77 C 73.022,77 71,79.451 71,82.624 L 71,168.243 121.107,77 Z"
               id="XMLID_2691_"
               inkscape:connector-curvature="0" />
            <linearGradient
               y2="86.714798"
               x2="204.66161"
               y1="176"
               x1="204.66161"
               gradientUnits="userSpaceOnUse"
               id="XMLID_598_-56">
              <stop
                 id="stop30275"
                 style="stop-color:#000000"
                 offset="0" />
              <stop
                 id="stop30277"
                 style="stop-color:#000000;stop-opacity:0.5882"
                 offset="1" />
            </linearGradient>
            <path
               style="fill:url(#XMLID_598_-56)"
               d="m 181.323,176 40.542,0 c 3.076,0 6.135,-3.762 6.135,-6.933 L 228,86.715 181.323,176 Z"
               id="XMLID_2690_"
               inkscape:connector-curvature="0" />
          </g>
        </g>
        <g
           id="XMLID_2659_">
          <g
             id="XMLID_2665_">
            <path
               d="M 234.536,54 65.599,54 C 57.867,54 51,60.894 51,69.607 l 0,103.07 C 51,181.39 57.867,189 65.599,189 l 168.937,0 C 242.268,189 249,181.39 249,172.678 L 249,69.607 C 249,60.894 242.268,54 234.536,54 Z M 230,166.604 c 0,3.354 -2.188,6.396 -5.372,6.396 L 73.667,173 C 70.482,173 68,169.958 68,166.604 L 68,75.156 C 68,71.801 70.482,69 73.667,69 l 150.961,0 c 3.184,0 5.372,2.801 5.372,6.156 l 0,91.448 z"
               id="XMLID_2669_"
               inkscape:connector-curvature="0"
               style="fill:#ffffff" />
            <g
               id="XMLID_2666_">
              <polygon
                 points="91,225 225,225 225,198 91,198 91,198.483 77,206.899 77,216.217 91,224.634 "
                 id="XMLID_2668_"
                 style="fill:#ffffff" />
              <polygon
                 points="76,215.689 67.757,211.469 76,207.249 "
                 id="XMLID_2667_"
                 style="fill:#ffffff" />
            </g>
          </g>
          <g
             id="XMLID_2660_">
            <path
               d="m 156.126,170 17.799,0 51.395,-96.568 C 224.365,72.693 223.166,72 221.865,72 l -13.416,0 -52.323,98 z"
               id="XMLID_2664_"
               inkscape:connector-curvature="0"
               style="fill:#ffffff" />
            <polygon
               points="126.515,170 180.104,72 164.265,72 111.201,170 "
               id="XMLID_2663_"
               style="fill:#ffffff" />
            <path
               d="M 121.107,72 76.098,72 C 73.022,72 71,74.34 71,77.512 l 0,85.62 L 121.107,72 Z"
               id="XMLID_2662_"
               inkscape:connector-curvature="0"
               style="fill:#ffffff" />
            <path
               d="m 181.323,170 40.542,0 c 3.076,0 6.135,-2.874 6.135,-6.045 L 228,81.603 181.323,170 Z"
               id="XMLID_2661_"
               inkscape:connector-curvature="0"
               style="fill:#ffffff" />
          </g>
        </g>
        <g
           id="XMLID_3164_-5" />
      </g>
      <g
         display="none"
         id="Capa_2-63"
         style="display:none" />
      <g
         display="none"
         id="Capa_3-91"
         style="display:none">
        <g
           display="inline"
           id="XMLID_864_"
           style="display:inline">
          <g
             id="XMLID_2878_">
            <path
               d="m 9.588,6 c -46.317,41.812 -51.791,113.807 -26.049,168.185 28.992,61.245 96.511,94.092 161.586,99.222 67.443,5.315 147.926,-16.484 173.568,-86.008 C 330.29,155.96 329.59,120.022 317.506,88.834 305.36,57.484 282.714,31.082 255.458,11.751 225.294,-9.645 186.433,-25.981 148.892,-23.612 116.329,-21.556 85.589,-3.94 66.338,22.235 c -4.925,6.696 -8.98,13.946 -12.213,21.6 -0.742,1.757 1.841,3.288 2.59,1.514 12.749,-30.176 39.499,-53.402 70.993,-62.299 36.193,-10.226 75.054,1.516 106.998,19.203 28.938,16.022 54.342,39.175 70.722,68.104 16.356,28.889 22.398,63.051 16.075,95.73 -6.511,33.65 -26.018,62.374 -55.487,80.052 -29.715,17.824 -65.608,24.763 -99.933,25.013 C 102.256,271.616 33.489,246.269 -3.174,191.542 -35.676,143.024 -39.246,72.363 -3.394,24.544 1.082,18.574 6.175,13.118 11.709,8.122 13.146,6.824 11.019,4.708 9.588,6 l 0,0 z"
               id="XMLID_2806_"
               inkscape:connector-curvature="0"
               style="fill:#d60523" />
          </g>
        </g>
      </g>
    </g>
  </g>
</svg>
